# Blender v2.80 (sub 75) OBJ File: 'angle_track.blend'
# www.blender.org
mtllib angle_track.mtl
o Cube.001_Cube.003
v -1.000000 0.000000 -0.608114
v 1.000000 0.000000 -0.346896
v 1.000000 0.136698 -0.608114
v 1.000000 0.000000 -0.608114
v 1.000000 0.136698 -0.346896
v 1.000000 0.000000 0.346896
v 1.000000 0.136698 0.608114
v 1.000000 0.000000 0.608114
v 1.000000 0.136698 0.346896
v 0.886590 0.000000 0.356818
v 0.931950 0.136698 0.614067
v 0.931950 0.000000 0.614067
v 0.886590 0.136698 0.356818
v 0.776625 0.000000 0.386283
v 0.865967 0.136698 0.631747
v 0.865967 0.000000 0.631747
v 0.776625 0.136698 0.386283
v 0.673448 0.000000 0.434395
v 0.804057 0.136698 0.660616
v 0.804057 0.000000 0.660616
v 0.673448 0.136698 0.434395
v 0.580193 0.000000 0.499693
v 0.748101 0.136698 0.699797
v 0.748101 0.000000 0.699797
v 0.580193 0.136698 0.499693
v 0.499694 0.000000 0.580193
v 0.699798 0.136698 0.748100
v 0.699798 0.000000 0.748100
v 0.499694 0.136698 0.580193
v 0.434396 0.000000 0.673448
v 0.660617 0.136698 0.804057
v 0.660617 0.000000 0.804057
v 0.434396 0.136698 0.673448
v 0.386283 0.000000 0.776625
v 0.631748 0.136698 0.865967
v 0.631748 0.000000 0.865967
v 0.386283 0.136698 0.776625
v 0.356819 0.000000 0.886589
v 0.614068 0.136698 0.931949
v 0.614068 0.000000 0.931949
v 0.356819 0.136698 0.886589
v 0.346897 0.000000 1.000000
v 0.608114 0.136698 1.000000
v 0.608114 0.000000 1.000000
v 0.346897 0.136698 1.000000
v 0.766114 0.000000 -0.326434
v 0.720754 0.136698 -0.583683
v 0.720754 0.000000 -0.583683
v 0.539335 0.095510 -0.265668
v 0.539335 0.000000 -0.265668
v 0.449993 0.136698 -0.511133
v 0.449993 0.000000 -0.511133
v 1.000000 0.095510 -0.608114
v 0.326552 0.000000 -0.166446
v 0.195943 0.136698 -0.392667
v 0.195943 0.000000 -0.392667
v 0.326552 0.136698 -0.166446
v 0.134232 0.000000 -0.031782
v -0.033675 0.136698 -0.231887
v -0.033675 0.000000 -0.231887
v -0.033675 0.095510 -0.231887
v -0.031782 0.000000 0.134232
v -0.231886 0.136698 -0.033676
v -0.231886 0.000000 -0.033676
v 1.000000 0.095510 -0.346896
v -0.166446 0.000000 0.326552
v -0.392667 0.136698 0.195943
v -0.392667 0.000000 0.195943
v -0.166446 0.136698 0.326552
v -0.265668 0.000000 0.539334
v -0.511132 0.136698 0.449993
v -0.511132 0.000000 0.449993
v -0.031782 0.095510 0.134232
v -0.326433 0.000000 0.766114
v -0.583682 0.136698 0.720754
v -0.583682 0.000000 0.720754
v 0.720754 0.095510 -0.583683
v -0.346895 0.000000 1.000000
v -0.608113 0.136698 1.000000
v -0.608113 0.000000 1.000000
v -0.346895 0.136698 1.000000
v 0.766114 0.136698 -0.326434
v 0.539335 0.136698 -0.265668
v 0.449993 0.095510 -0.511133
v 0.134232 0.136698 -0.031782
v 0.766114 0.095510 -0.326434
v -0.031782 0.136698 0.134232
v 0.326552 0.095510 -0.166446
v -0.265668 0.136698 0.539334
v 0.195943 0.095510 -0.392667
v -0.326433 0.136698 0.766114
v -0.231886 0.095510 -0.033676
v 0.134232 0.095510 -0.031782
v -0.392667 0.095510 0.195943
v -0.166446 0.095510 0.326552
v -0.511132 0.095510 0.449993
v -0.265668 0.095510 0.539334
v -0.583682 0.095510 0.720754
v -0.326433 0.095510 0.766114
v -0.608113 0.095510 1.000000
v -0.346895 0.095510 1.000000
v 1.000000 0.041636 -0.346896
v 0.766114 0.041636 -0.326434
v 0.539335 0.041636 -0.265668
v 0.326552 0.041636 -0.166446
v 0.134232 0.041636 -0.031782
v -0.031782 0.041636 0.134232
v -0.166446 0.041636 0.326552
v -0.265668 0.041636 0.539334
v -0.326433 0.041636 0.766114
v -0.346895 0.041636 1.000000
v -0.608113 0.041636 1.000000
v -0.583682 0.041636 0.720754
v -0.511132 0.041636 0.449993
v 0.720754 0.041636 -0.583683
v 1.000000 0.041636 -0.608114
v 0.195943 0.041636 -0.392667
v 0.449993 0.041636 -0.511133
v -0.392667 0.041636 0.195943
v -0.231886 0.041636 -0.033676
v -0.033675 0.041636 -0.231887
v 0.732539 0.095510 0.455379
v 0.959318 0.095510 0.394613
v 0.496061 0.095510 0.662075
v 0.662075 0.095510 0.496061
v 0.394614 0.095510 0.959318
v 0.455379 0.095510 0.732538
v 0.959318 0.041636 0.394613
v 0.732539 0.041636 0.455379
v 0.662075 0.041636 0.496061
v 0.496061 0.041636 0.662075
v 0.455379 0.041636 0.732538
v 0.394614 0.041636 0.959318
vt 0.500000 0.250000
vt 0.500000 0.500000
vt 0.625000 0.500000
vt 0.625000 0.250000
vt 0.375000 0.250000
vt 0.625000 0.250000
vt 0.625000 0.500000
vt 0.375000 0.500000
vt 0.625000 0.250000
vt 0.625000 0.500000
vt 0.375000 0.250000
vt 0.375000 0.500000
vt 0.625000 0.250000
vt 0.625000 0.500000
vt 0.375000 0.250000
vt 0.375000 0.500000
vt 0.625000 0.250000
vt 0.625000 0.500000
vt 0.375000 0.250000
vt 0.375000 0.500000
vt 0.625000 0.250000
vt 0.625000 0.500000
vt 0.375000 0.250000
vt 0.375000 0.500000
vt 0.625000 0.250000
vt 0.625000 0.500000
vt 0.375000 0.250000
vt 0.375000 0.500000
vt 0.625000 0.250000
vt 0.625000 0.500000
vt 0.375000 0.250000
vt 0.375000 0.500000
vt 0.625000 0.250000
vt 0.625000 0.500000
vt 0.375000 0.250000
vt 0.375000 0.500000
vt 0.625000 0.250000
vt 0.625000 0.500000
vt 0.375000 0.250000
vt 0.375000 0.500000
vt 0.625000 0.250000
vt 0.625000 0.500000
vt 0.375000 0.250000
vt 0.375000 0.500000
vt 0.625000 0.500000
vt 0.625000 0.250000
vt 0.500000 0.250000
vt 0.437500 0.500000
vt 0.375000 0.500000
vt 0.375000 0.500000
vt 0.437500 0.500000
vt 0.625000 0.500000
vt 0.625000 0.250000
vt 0.625000 0.500000
vt 0.500000 0.500000
vt 0.500000 0.500000
vt 0.625000 0.500000
vt 0.375000 0.500000
vt 0.437500 0.500000
vt 0.625000 0.500000
vt 0.625000 0.250000
vt 0.500000 0.250000
vt 0.500000 0.250000
vt 0.375000 0.500000
vt 0.437500 0.500000
vt 0.625000 0.250000
vt 0.500000 0.250000
vt 0.375000 0.500000
vt 0.437500 0.500000
vt 0.625000 0.250000
vt 0.500000 0.500000
vt 0.375000 0.500000
vt 0.437500 0.500000
vt 0.625000 0.500000
vt 0.625000 0.250000
vt 0.500000 0.250000
vt 0.500000 0.250000
vt 0.375000 0.500000
vt 0.437500 0.500000
vt 0.625000 0.500000
vt 0.625000 0.250000
vt 0.500000 0.250000
vt 0.375000 0.500000
vt 0.437500 0.500000
vt 0.625000 0.500000
vt 0.625000 0.250000
vt 0.437500 0.250000
vt 0.437500 0.250000
vt 0.375000 0.500000
vt 0.437500 0.500000
vt 0.625000 0.500000
vt 0.625000 0.250000
vt 0.500000 0.250000
vt 0.500000 0.250000
vt 0.375000 0.500000
vt 0.437500 0.500000
vt 0.437500 0.250000
vt 0.437500 0.250000
vt 0.375000 0.250000
vt 0.375000 0.250000
vt 0.500000 0.500000
vt 0.500000 0.500000
vt 0.437500 0.250000
vt 0.375000 0.250000
vt 0.375000 0.250000
vt 0.437500 0.250000
vt 0.437500 0.250000
vt 0.500000 0.500000
vt 0.500000 0.500000
vt 0.437500 0.250000
vt 0.375000 0.250000
vt 0.375000 0.250000
vt 0.437500 0.250000
vt 0.500000 0.500000
vt 0.500000 0.500000
vt 0.437500 0.250000
vt 0.375000 0.250000
vt 0.375000 0.250000
vt 0.375000 0.250000
vt 0.500000 0.250000
vt 0.437500 0.250000
vt 0.375000 0.250000
vt 0.437500 0.250000
vt 0.500000 0.250000
vt 0.437500 0.250000
vt 0.500000 0.250000
vt 0.500000 0.250000
vt 0.437500 0.250000
vt 0.437500 0.250000
vt 0.500000 0.250000
vt 0.437500 0.250000
vt 0.500000 0.250000
vn 1.0000 0.0000 -0.0000
vn 0.0000 1.0000 0.0000
vn -0.0872 0.0000 -0.9962
vn 0.0872 0.0000 0.9962
vn -0.2588 0.0000 -0.9659
vn 0.2588 0.0000 0.9659
vn -0.4226 0.0000 -0.9063
vn 0.4226 0.0000 0.9063
vn -0.5736 0.0000 -0.8192
vn 0.5736 0.0000 0.8192
vn -0.7071 0.0000 -0.7071
vn 0.7071 0.0000 0.7071
vn -0.8192 0.0000 -0.5736
vn 0.8192 0.0000 0.5736
vn -0.9063 0.0000 -0.4226
vn 0.9063 0.0000 0.4226
vn -0.9659 0.0000 -0.2588
vn 0.9659 0.0000 0.2588
vn -0.9962 0.0000 -0.0872
vn 0.9962 0.0000 0.0872
vn 0.9659 0.0000 -0.2588
vn 0.0000 -1.0000 0.0000
vn 0.7071 0.0000 -0.7071
vn -0.2588 0.0000 0.9659
vn -0.7071 0.0000 0.7071
vn -0.9659 0.0000 0.2588
vn 0.2588 0.0000 -0.9659
usemtl Material.002
s off
f 65/1/1 53/2/1 3/3/1 5/4/1
f 6/5/1 9/6/1 7/7/1 8/8/1
f 7/7/2 9/6/2 13/9/2 11/10/2
f 9/6/3 6/5/3 10/11/3 13/9/3
f 8/8/4 7/7/4 11/10/4 12/12/4
f 11/10/2 13/9/2 17/13/2 15/14/2
f 13/9/5 10/11/5 14/15/5 17/13/5
f 12/12/6 11/10/6 15/14/6 16/16/6
f 15/14/2 17/13/2 21/17/2 19/18/2
f 17/13/7 14/15/7 18/19/7 21/17/7
f 16/16/8 15/14/8 19/18/8 20/20/8
f 19/18/2 21/17/2 25/21/2 23/22/2
f 21/17/9 18/19/9 22/23/9 25/21/9
f 20/20/10 19/18/10 23/22/10 24/24/10
f 23/22/2 25/21/2 29/25/2 27/26/2
f 25/21/11 22/23/11 26/27/11 29/25/11
f 24/24/12 23/22/12 27/26/12 28/28/12
f 27/26/2 29/25/2 33/29/2 31/30/2
f 29/25/13 26/27/13 30/31/13 33/29/13
f 28/28/14 27/26/14 31/30/14 32/32/14
f 31/30/2 33/29/2 37/33/2 35/34/2
f 33/29/15 30/31/15 34/35/15 37/33/15
f 32/32/16 31/30/16 35/34/16 36/36/16
f 35/34/2 37/33/2 41/37/2 39/38/2
f 37/33/17 34/35/17 38/39/17 41/37/17
f 36/36/18 35/34/18 39/38/18 40/40/18
f 39/38/2 41/37/2 45/41/2 43/42/2
f 41/37/19 38/39/19 42/43/19 45/41/19
f 40/40/20 39/38/20 43/42/20 44/44/20
f 5/4/2 3/3/2 47/45/2 82/46/2
f 65/1/4 5/4/4 82/46/4 86/47/4
f 116/48/3 4/49/3 48/50/3 115/51/3
f 82/46/2 47/45/2 51/52/2 83/53/2
f 59/54/11 61/55/11 92/56/11 63/57/11
f 115/51/5 48/50/5 52/58/5 118/59/5
f 83/53/2 51/52/2 55/60/2 57/61/2
f 49/62/8 83/53/8 57/61/8 88/63/8
f 118/59/7 52/58/7 56/64/7 117/65/7
f 57/61/2 55/60/2 59/54/2 85/66/2
f 88/63/10 57/61/10 85/66/10 93/67/10
f 117/65/9 56/64/9 60/68/9 121/69/9
f 85/66/2 59/54/2 63/57/2 87/70/2
f 55/60/9 90/71/9 61/55/9 59/54/9
f 121/69/11 60/68/11 64/72/11 120/73/11
f 87/70/2 63/57/2 67/74/2 69/75/2
f 73/76/14 87/70/14 69/75/14 95/77/14
f 120/73/13 64/72/13 68/78/13 119/79/13
f 69/75/2 67/74/2 71/80/2 89/81/2
f 95/77/16 69/75/16 89/81/16 97/82/16
f 119/79/15 68/78/15 72/83/15 114/84/15
f 89/81/2 71/80/2 75/85/2 91/86/2
f 105/87/10 88/63/10 93/67/10 106/88/10
f 114/84/17 72/83/17 76/89/17 113/90/17
f 91/86/2 75/85/2 79/91/2 81/92/2
f 99/93/20 91/86/20 81/92/20 101/94/20
f 113/90/19 76/89/19 80/95/19 112/96/19
f 103/97/6 104/98/6 50/99/6 46/100/6
f 85/66/12 87/70/12 73/76/12 93/67/12
f 75/85/19 98/101/19 100/102/19 79/91/19
f 89/81/18 91/86/18 99/93/18 97/82/18
f 106/88/12 107/103/12 62/104/12 58/105/12
f 110/106/20 99/93/20 101/94/20 111/107/20
f 67/74/15 94/108/15 96/109/15 71/80/15
f 82/46/6 83/53/6 49/62/6 86/47/6
f 109/110/18 110/106/18 74/111/18 70/112/18
f 108/113/16 95/77/16 97/82/16 109/110/16
f 107/103/14 73/76/14 95/77/14 108/113/14
f 71/80/17 96/109/17 98/101/17 75/85/17
f 63/57/13 92/56/13 94/108/13 67/74/13
f 51/52/7 84/114/7 90/71/7 55/60/7
f 104/98/8 49/62/8 88/63/8 105/87/8
f 47/45/5 77/115/5 84/114/5 51/52/5
f 3/3/3 53/2/3 77/115/3 47/45/3
f 102/116/4 65/1/4 86/47/4 103/97/4
f 102/116/1 116/48/1 53/2/1 65/1/1
f 2/117/1 4/49/1 116/48/1 102/116/1
f 2/117/4 102/116/4 103/97/4 46/100/4
f 50/99/8 104/98/8 105/87/8 54/118/8
f 62/104/14 107/103/14 108/113/14 66/119/14
f 66/119/16 108/113/16 109/110/16 70/112/16
f 103/97/21 86/47/21 123/120/21 128/121/21
f 74/111/20 110/106/20 111/107/20 78/122/20
f 104/98/22 103/97/22 128/121/22 129/123/22
f 106/88/23 93/67/23 125/124/23 130/125/23
f 98/101/19 113/90/19 112/96/19 100/102/19
f 96/109/17 114/84/17 113/90/17 98/101/17
f 54/118/10 105/87/10 106/88/10 58/105/10
f 94/108/15 119/79/15 114/84/15 96/109/15
f 92/56/13 120/73/13 119/79/13 94/108/13
f 61/55/11 121/69/11 120/73/11 92/56/11
f 90/71/9 117/65/9 121/69/9 61/55/9
f 84/114/7 118/59/7 117/65/7 90/71/7
f 77/115/5 115/51/5 118/59/5 84/114/5
f 53/2/3 116/48/3 115/51/3 77/115/3
f 127/126/18 126/127/18 133/128/18 132/129/18
f 125/124/12 124/130/12 131/131/12 130/125/12
f 123/120/6 122/132/6 129/123/6 128/121/6
f 97/82/2 99/93/2 126/127/2 127/126/2
f 110/106/22 109/110/22 132/129/22 133/128/22
f 99/93/24 110/106/24 133/128/24 126/127/24
f 73/76/25 107/103/25 131/131/25 124/130/25
f 49/62/26 104/98/26 129/123/26 122/132/26
f 86/47/2 49/62/2 122/132/2 123/120/2
f 107/103/22 106/88/22 130/125/22 131/131/22
f 93/67/2 73/76/2 124/130/2 125/124/2
f 109/110/27 97/82/27 127/126/27 132/129/27
