# Blender v2.80 (sub 75) OBJ File: 'cargo.blend'
# www.blender.org
mtllib cargo.mtl
o Cube
v 0.201251 0.484410 1.000000
v 0.350188 -0.402501 -0.933026
v 0.350188 -0.402501 0.916177
v 0.350188 -0.402501 0.408709
v 0.201251 0.484410 -1.000000
v 0.201251 -0.148484 1.000000
v 0.201251 -0.402501 0.408709
v 0.402501 -0.183936 -0.933026
v 0.402501 -0.183936 0.916177
v 0.201251 -0.402501 -1.000000
v 0.402501 0.422058 -0.933026
v 0.201251 -0.148484 -1.000000
v 0.201251 -0.402501 1.000000
v 0.402501 0.422058 0.916177
v 0.201251 0.189802 0.408709
v -0.201251 0.484410 1.000000
v -0.350188 -0.402501 -0.933026
v -0.350188 -0.402501 0.916177
v -0.350188 -0.402501 0.408709
v -0.201251 0.484410 -1.000000
v -0.201251 -0.148484 1.000000
v -0.201251 -0.402501 0.408709
v -0.402501 -0.183936 -0.933026
v -0.402501 -0.183936 0.916177
v -0.201251 -0.402501 -1.000000
v -0.402501 0.422058 -0.933026
v -0.201251 -0.148484 -1.000000
v -0.201251 -0.402501 1.000000
v -0.402501 0.422058 0.916177
v 0.000000 -0.402501 -1.000000
v 0.000000 -0.402501 0.408709
v 0.000000 -0.402501 1.000000
v 0.000000 -0.148484 -1.000000
v 0.000000 -0.148484 1.000000
v 0.000000 0.502157 -1.000000
v 0.000000 0.502157 1.000000
v -0.201251 0.189802 0.408709
vt 0.562500 0.750000
vt 0.625000 0.750000
vt 0.625000 0.875000
vt 0.562500 0.875000
vt 0.500000 0.750000
vt 0.500000 0.875000
vt 0.625000 1.000000
vt 0.562500 1.000000
vt 0.312500 0.687500
vt 0.250000 0.750000
vt 0.500000 0.750000
vt 0.500000 0.718750
vt 0.250000 0.625000
vt 0.250000 0.750000
vt 0.125000 0.750000
vt 0.125000 0.625000
vt 0.125000 0.500000
vt 0.500000 0.375000
vt 0.500000 0.312500
vt 0.500000 0.312500
vt 0.500000 0.375000
vt 0.500000 0.250000
vt 0.500000 0.250000
vt 0.250000 0.625000
vt 0.500000 0.750000
vt 0.500000 0.718750
vt 0.500000 0.687500
vt 0.500000 0.687500
vt 0.375000 0.312500
vt 0.375000 0.375000
vt 0.375000 0.625000
vt 0.375000 0.250000
vt 0.625000 0.625000
vt 0.750000 0.625000
vt 0.750000 0.687500
vt 0.625000 0.687500
vt 0.500000 0.718750
vt 0.500000 1.000000
vt 0.750000 0.750000
vt 0.562500 0.750000
vt 0.562500 0.875000
vt 0.625000 0.875000
vt 0.625000 0.750000
vt 0.562500 1.000000
vt 0.625000 1.000000
vt 0.312500 0.687500
vt 0.500000 0.718750
vt 0.500000 0.750000
vt 0.250000 0.750000
vt 0.250000 0.625000
vt 0.125000 0.500000
vt 0.125000 0.625000
vt 0.125000 0.750000
vt 0.250000 0.750000
vt 0.500000 0.312500
vt 0.500000 0.312500
vt 0.500000 0.250000
vt 0.500000 0.250000
vt 0.250000 0.625000
vt 0.500000 0.750000
vt 0.500000 0.718750
vt 0.375000 0.312500
vt 0.375000 0.250000
vt 0.625000 0.687500
vt 0.750000 0.687500
vt 0.500000 0.718750
vt 0.750000 0.750000
vn 0.0000 -1.0000 0.0000
vn 0.2959 0.9552 0.0000
vn 0.9725 -0.2328 0.0000
vn 0.0000 0.0000 1.0000
vn 0.3845 0.0000 0.9231
vn 1.0000 0.0000 0.0000
vn 0.3158 0.0000 -0.9488
vn 0.0000 0.0000 -1.0000
vn 0.0878 0.9961 0.0000
vn 0.4274 -0.0473 0.9028
vn 0.0000 -0.9724 0.2335
vn 0.3535 -0.0391 -0.9346
vn 0.0000 0.9724 -0.2335
vn -0.2959 0.9552 0.0000
vn -0.9725 -0.2328 0.0000
vn -0.3845 0.0000 0.9231
vn -1.0000 0.0000 0.0000
vn -0.3158 0.0000 -0.9488
vn -0.0878 0.9961 0.0000
vn -0.4274 -0.0473 0.9028
vn -0.3535 -0.0391 -0.9346
usemtl Material
s off
f 10/1/1 2/2/1 4/3/1 7/4/1
f 30/5/1 10/1/1 7/4/1 31/6/1
f 7/4/1 4/3/1 3/7/1 13/8/1
f 1/9/2 14/10/2 11/11/2 5/12/2
f 8/13/3 9/14/3 3/15/3 4/16/3 2/17/3
f 34/18/4 6/19/4 1/20/4 36/21/4
f 6/19/5 9/22/5 14/23/5 1/20/5
f 9/14/6 8/13/6 11/24/6 14/10/6
f 8/25/7 12/26/7 5/12/7 11/11/7
f 12/26/8 33/27/8 35/28/8 5/12/8
f 13/29/4 6/19/4 34/18/4 32/30/4
f 36/31/9 1/9/9 5/12/9 35/28/9
f 3/32/10 9/22/10 6/19/10 13/29/10
f 30/33/8 33/34/8 12/35/8 10/36/8
f 33/27/11 12/26/11 15/37/11
f 31/6/1 7/4/1 13/8/1 32/38/1
f 10/36/12 12/35/12 8/39/12 2/2/12
f 12/35/13 33/34/13 15/37/13
f 25/40/1 22/41/1 19/42/1 17/43/1
f 30/5/1 31/6/1 22/41/1 25/40/1
f 22/41/1 28/44/1 18/45/1 19/42/1
f 16/46/14 20/47/14 26/48/14 29/49/14
f 23/50/15 17/51/15 19/52/15 18/53/15 24/54/15
f 34/18/4 36/21/4 16/55/4 21/56/4
f 21/56/16 16/55/16 29/57/16 24/58/16
f 24/54/17 29/49/17 26/59/17 23/50/17
f 23/60/18 26/48/18 20/47/18 27/61/18
f 27/61/8 20/47/8 35/28/8 33/27/8
f 28/62/4 32/30/4 34/18/4 21/56/4
f 36/31/19 35/28/19 20/47/19 16/46/19
f 18/63/20 28/62/20 21/56/20 24/58/20
f 30/33/8 25/64/8 27/65/8 33/34/8
f 33/27/11 37/66/11 27/61/11
f 31/6/1 32/38/1 28/44/1 22/41/1
f 25/64/21 17/43/21 23/67/21 27/65/21
f 27/65/13 37/66/13 33/34/13
