# Blender v2.80 (sub 75) OBJ File: 'train.blend'
# www.blender.org
mtllib train.mtl
o Cube
v 0.201251 0.484410 1.000000
v 0.447218 -0.402501 -1.000000
v 0.402501 -0.183936 0.408709
v 0.447218 -0.402501 1.000000
v 0.447218 -0.402501 0.408709
v 0.201251 0.484410 0.408709
v 0.201251 -0.148484 1.000000
v 0.201251 -0.402501 0.408709
v 0.402501 -0.183936 -1.000000
v 0.201251 -0.148484 0.408709
v 0.402501 -0.183936 1.000000
v 0.201251 -0.402501 -1.173831
v 0.402501 0.422058 0.408709
v 0.201251 -0.148484 -1.000000
v 0.201251 -0.402501 1.000000
v 0.402501 0.422058 1.000000
v 0.201251 0.189802 0.408709
v 0.201251 0.189802 -1.000000
v -0.201251 0.484410 1.000000
v -0.447218 -0.402501 -1.000000
v -0.402501 -0.183936 0.408709
v -0.447218 -0.402501 1.000000
v -0.447218 -0.402501 0.408709
v -0.201251 0.484410 0.408709
v -0.201251 -0.148484 1.000000
v -0.201251 -0.402501 0.408709
v -0.402501 -0.183936 -1.000000
v -0.201251 -0.148484 0.408709
v -0.402501 -0.183936 1.000000
v -0.201251 -0.402501 -1.173831
v -0.402501 0.422058 0.408709
v -0.201251 -0.148484 -1.000000
v -0.201251 -0.402501 1.000000
v -0.402501 0.422058 1.000000
v 0.000000 -0.402501 -1.173831
v 0.000000 -0.148484 0.408709
v 0.000000 -0.402501 0.408709
v 0.000000 -0.402501 1.000000
v 0.000000 -0.148484 -1.000000
v 0.000000 -0.148484 1.000000
v 0.000000 0.502157 0.408709
v 0.000000 0.502157 1.000000
v -0.201251 0.189802 0.408709
v -0.201251 0.189802 -1.000000
v 0.000000 0.230158 -1.000000
v 0.000000 0.230158 0.408709
vt 0.562500 0.750000
vt 0.625000 0.750000
vt 0.625000 0.875000
vt 0.562500 0.875000
vt 0.500000 0.718750
vt 0.500000 0.750000
vt 0.750000 0.750000
vt 0.687500 0.750000
vt 0.500000 0.750000
vt 0.500000 0.875000
vt 0.625000 1.000000
vt 0.562500 1.000000
vt 0.312500 0.687500
vt 0.250000 0.750000
vt 0.500000 0.750000
vt 0.500000 0.718750
vt 0.125000 0.500000
vt 0.250000 0.500000
vt 0.250000 0.625000
vt 0.125000 0.625000
vt 0.625000 0.687500
vt 0.250000 0.750000
vt 0.125000 0.750000
vt 0.500000 0.687500
vt 0.500000 0.718750
vt 0.687500 0.750000
vt 0.625000 0.750000
vt 0.500000 0.375000
vt 0.500000 0.312500
vt 0.500000 0.312500
vt 0.500000 0.375000
vt 0.500000 0.250000
vt 0.500000 0.250000
vt 0.250000 0.625000
vt 0.500000 0.687500
vt 0.500000 0.687500
vt 0.375000 0.312500
vt 0.375000 0.375000
vt 0.375000 0.625000
vt 0.375000 0.250000
vt 0.625000 0.625000
vt 0.750000 0.625000
vt 0.750000 0.687500
vt 0.500000 1.000000
vt 0.750000 0.625000
vt 0.750000 0.687500
vt 0.562500 0.750000
vt 0.562500 0.875000
vt 0.625000 0.875000
vt 0.625000 0.750000
vt 0.500000 0.718750
vt 0.687500 0.750000
vt 0.750000 0.750000
vt 0.500000 0.750000
vt 0.562500 1.000000
vt 0.625000 1.000000
vt 0.312500 0.687500
vt 0.500000 0.718750
vt 0.500000 0.750000
vt 0.250000 0.750000
vt 0.125000 0.500000
vt 0.125000 0.625000
vt 0.250000 0.625000
vt 0.250000 0.500000
vt 0.625000 0.687500
vt 0.125000 0.750000
vt 0.250000 0.750000
vt 0.687500 0.750000
vt 0.500000 0.718750
vt 0.500000 0.312500
vt 0.500000 0.312500
vt 0.000000 0.000000
vt 0.000000 0.000000
vt 0.000000 0.000000
vt 0.000000 0.000000
vt 0.500000 0.250000
vt 0.500000 0.250000
vt 0.250000 0.625000
vt 0.375000 0.312500
vt 0.375000 0.250000
vt 0.750000 0.687500
vt 0.750000 0.687500
vn 0.0000 -1.0000 0.0000
vn 0.1735 0.9848 0.0000
vn 0.2959 0.9552 0.0000
vn 0.9797 0.2004 0.0000
vn 0.5732 0.1173 -0.8110
vn 0.1966 0.9805 0.0000
vn 0.0000 0.0000 1.0000
vn 1.0000 0.0000 0.0000
vn 0.0000 0.0000 -1.0000
vn 0.0878 0.9961 0.0000
vn 0.0000 0.5647 -0.8253
vn 0.0990 0.5620 -0.8212
vn -0.1735 0.9848 0.0000
vn -0.2959 0.9552 0.0000
vn -0.9797 0.2004 0.0000
vn -0.5732 0.1173 -0.8110
vn -0.1966 0.9805 0.0000
vn -1.0000 0.0000 0.0000
vn -0.0878 0.9961 0.0000
vn -0.0990 0.5620 -0.8212
usemtl Material
s off
f 12/1/1 2/2/1 5/3/1 8/4/1
f 10/5/2 3/6/2 9/7/2 14/8/2
f 35/9/1 12/1/1 8/4/1 37/10/1
f 8/4/1 5/3/1 4/11/1 15/12/1
f 1/13/3 16/14/3 13/15/3 6/16/3
f 2/17/4 9/18/4 3/19/4 5/20/4
f 12/21/5 9/7/5 2/2/5
f 5/20/4 3/19/4 11/22/4 4/23/4
f 46/24/6 17/25/6 18/26/6 45/27/6
f 40/28/7 7/29/7 1/30/7 42/31/7
f 10/5/8 14/8/8 18/26/8 17/25/8
f 7/29/7 11/32/7 16/33/7 1/30/7
f 11/22/8 3/19/8 13/34/8 16/14/8
f 3/6/9 10/5/9 6/16/9 13/15/9
f 10/5/9 36/35/9 41/36/9 6/16/9
f 15/37/7 7/29/7 40/28/7 38/38/7
f 42/39/10 1/13/10 6/16/10 41/36/10
f 4/40/7 11/32/7 7/29/7 15/37/7
f 35/41/11 39/42/11 14/43/11 12/21/11
f 36/35/7 10/5/7 17/25/7 46/24/7
f 37/10/1 8/4/1 15/12/1 38/44/1
f 14/43/9 39/42/9 45/45/9 18/46/9
f 12/21/12 14/43/12 9/7/12
f 30/47/1 26/48/1 23/49/1 20/50/1
f 28/51/13 32/52/13 27/53/13 21/54/13
f 35/9/1 37/10/1 26/48/1 30/47/1
f 26/48/1 33/55/1 22/56/1 23/49/1
f 19/57/14 24/58/14 31/59/14 34/60/14
f 20/61/15 23/62/15 21/63/15 27/64/15
f 30/65/16 20/50/16 27/53/16
f 23/62/15 22/66/15 29/67/15 21/63/15
f 46/24/17 45/27/17 44/68/17 43/69/17
f 40/28/7 42/31/7 19/70/7 25/71/7
f 28/51/18 43/69/18 44/68/18 32/52/18
f 39/72/8 45/73/8 46/74/8 36/75/8
f 25/71/7 19/70/7 34/76/7 29/77/7
f 29/67/18 34/60/18 31/78/18 21/63/18
f 21/54/9 31/59/9 24/58/9 28/51/9
f 28/51/9 24/58/9 41/36/9 36/35/9
f 33/79/7 38/38/7 40/28/7 25/71/7
f 42/39/19 41/36/19 24/58/19 19/57/19
f 22/80/7 33/79/7 25/71/7 29/77/7
f 35/41/11 30/65/11 32/81/11 39/42/11
f 36/35/7 46/24/7 43/69/7 28/51/7
f 37/10/1 38/44/1 33/55/1 26/48/1
f 32/81/9 44/82/9 45/45/9 39/42/9
f 30/65/20 27/53/20 32/81/20
